<?xml version="1.0" encoding="UTF-8"?>
<!DOCTYPE svg PUBLIC "-//W3C//DTD SVG 1.1//EN" "http://www.w3.org/Graphics/SVG/1.1/DTD/svg11.dtd">
<svg version="1.2" width="12.19mm" height="12.19mm" viewBox="0 0 1219 1219" preserveAspectRatio="xMidYMid" fill-rule="evenodd" stroke-width="28.222" stroke-linejoin="round" xmlns="http://www.w3.org/2000/svg" xmlns:ooo="http://xml.openoffice.org/svg/export" xmlns:xlink="http://www.w3.org/1999/xlink" xmlns:presentation="http://sun.com/xmlns/staroffice/presentation" xmlns:smil="http://www.w3.org/2001/SMIL20/" xmlns:anim="urn:oasis:names:tc:opendocument:xmlns:animation:1.0" xml:space="preserve">
 <defs class="ClipPathGroup">
  <clipPath id="presentation_clip_path" clipPathUnits="userSpaceOnUse">
   <rect x="0" y="0" width="1219" height="1219"/>
  </clipPath>
  <clipPath id="presentation_clip_path_shrink" clipPathUnits="userSpaceOnUse">
   <rect x="1" y="1" width="1217" height="1217"/>
  </clipPath>
 </defs>
 <defs class="TextShapeIndex">
  <g ooo:slide="id1" ooo:id-list="id3"/>
 </defs>
 <defs class="EmbeddedBulletChars">
  <g id="bullet-char-template-57356" transform="scale(0.00048828125,-0.00048828125)">
   <path d="M 580,1141 L 1163,571 580,0 -4,571 580,1141 Z"/>
  </g>
  <g id="bullet-char-template-57354" transform="scale(0.00048828125,-0.00048828125)">
   <path d="M 8,1128 L 1137,1128 1137,0 8,0 8,1128 Z"/>
  </g>
  <g id="bullet-char-template-10146" transform="scale(0.00048828125,-0.00048828125)">
   <path d="M 174,0 L 602,739 174,1481 1456,739 174,0 Z M 1358,739 L 309,1346 659,739 1358,739 Z"/>
  </g>
  <g id="bullet-char-template-10132" transform="scale(0.00048828125,-0.00048828125)">
   <path d="M 2015,739 L 1276,0 717,0 1260,543 174,543 174,936 1260,936 717,1481 1274,1481 2015,739 Z"/>
  </g>
  <g id="bullet-char-template-10007" transform="scale(0.00048828125,-0.00048828125)">
   <path d="M 0,-2 C -7,14 -16,27 -25,37 L 356,567 C 262,823 215,952 215,954 215,979 228,992 255,992 264,992 276,990 289,987 310,991 331,999 354,1012 L 381,999 492,748 772,1049 836,1024 860,1049 C 881,1039 901,1025 922,1006 886,937 835,863 770,784 769,783 710,716 594,584 L 774,223 C 774,196 753,168 711,139 L 727,119 C 717,90 699,76 672,76 641,76 570,178 457,381 L 164,-76 C 142,-110 111,-127 72,-127 30,-127 9,-110 8,-76 1,-67 -2,-52 -2,-32 -2,-23 -1,-13 0,-2 Z"/>
  </g>
  <g id="bullet-char-template-10004" transform="scale(0.00048828125,-0.00048828125)">
   <path d="M 285,-33 C 182,-33 111,30 74,156 52,228 41,333 41,471 41,549 55,616 82,672 116,743 169,778 240,778 293,778 328,747 346,684 L 369,508 C 377,444 397,411 428,410 L 1163,1116 C 1174,1127 1196,1133 1229,1133 1271,1133 1292,1118 1292,1087 L 1292,965 C 1292,929 1282,901 1262,881 L 442,47 C 390,-6 338,-33 285,-33 Z"/>
  </g>
  <g id="bullet-char-template-9679" transform="scale(0.00048828125,-0.00048828125)">
   <path d="M 813,0 C 632,0 489,54 383,161 276,268 223,411 223,592 223,773 276,916 383,1023 489,1130 632,1184 813,1184 992,1184 1136,1130 1245,1023 1353,916 1407,772 1407,592 1407,412 1353,268 1245,161 1136,54 992,0 813,0 Z"/>
  </g>
  <g id="bullet-char-template-8226" transform="scale(0.00048828125,-0.00048828125)">
   <path d="M 346,457 C 273,457 209,483 155,535 101,586 74,649 74,723 74,796 101,859 155,911 209,963 273,989 346,989 419,989 480,963 531,910 582,859 608,796 608,723 608,648 583,586 532,535 482,483 420,457 346,457 Z"/>
  </g>
  <g id="bullet-char-template-8211" transform="scale(0.00048828125,-0.00048828125)">
   <path d="M -4,459 L 1135,459 1135,606 -4,606 -4,459 Z"/>
  </g>
  <g id="bullet-char-template-61548" transform="scale(0.00048828125,-0.00048828125)">
   <path d="M 173,740 C 173,903 231,1043 346,1159 462,1274 601,1332 765,1332 928,1332 1067,1274 1183,1159 1299,1043 1357,903 1357,740 1357,577 1299,437 1183,322 1067,206 928,148 765,148 601,148 462,206 346,322 231,437 173,577 173,740 Z"/>
  </g>
 </defs>
 <g>
  <g id="id2" class="Master_Slide">
   <g id="bg-id2" class="Background"/>
   <g id="bo-id2" class="BackgroundObjects"/>
  </g>
 </g>
 <g class="SlideGroup">
  <g>
   <g id="container-id1">
    <g id="id1" class="Slide" clip-path="url(#presentation_clip_path)">
     <g class="Page">
      <g class="Graphic">
       <g id="id3">
        <rect class="BoundingBox" stroke="none" fill="none" x="-54" y="-38" width="1270" height="1270"/>
        <defs>
         <clipPath id="clip_path_1" clipPathUnits="userSpaceOnUse">
          <path d="M -54,-38 L 1215,-38 1215,1231 -54,1231 -54,-38 Z"/>
         </clipPath>
        </defs>
        <g clip-path="url(#clip_path_1)">
         <path fill="rgb(41,50,65)" stroke="none" d="M 1391,366 L 1449,366 1510,805 1465,805 1451,694 1388,694 1375,802 1330,802 1391,366 1391,366 Z M 1449,659 L 1422,416 1422,416 1393,659 1449,659 1449,659 Z"/>
         <path fill="rgb(41,50,65)" stroke="none" d="M 1586,701 L 1586,736 C 1586,757 1599,770 1618,770 1636,770 1650,757 1650,736 L 1650,696 C 1650,646 1541,672 1541,588 L 1541,556 C 1541,511 1576,485 1618,485 1660,485 1694,511 1694,556 L 1694,590 1650,590 1650,556 C 1650,535 1636,522 1618,522 1599,522 1586,535 1586,556 L 1586,588 C 1586,638 1694,612 1694,696 L 1694,736 C 1694,781 1660,807 1618,807 1576,807 1541,783 1541,736 L 1541,701 1586,701 1586,701 Z"/>
         <path fill="rgb(41,50,65)" stroke="none" d="M 1784,852 L 1784,876 C 1784,900 1800,913 1819,913 1837,913 1853,900 1853,878 L 1853,778 C 1837,799 1816,810 1792,810 1766,810 1742,791 1742,757 L 1742,490 1787,490 1787,744 C 1787,762 1798,770 1813,770 1837,770 1856,754 1856,725 L 1856,490 1901,490 1901,876 C 1901,923 1866,950 1821,950 1779,950 1742,923 1742,876 L 1742,852 1784,852 1784,852 Z"/>
         <path fill="rgb(41,50,65)" stroke="none" d="M 1990,805 L 1945,805 1945,490 1990,490 1990,519 C 2006,498 2027,487 2051,487 2080,487 2101,506 2101,540 L 2101,805 2059,805 2059,551 C 2059,535 2046,524 2033,524 2009,524 1990,540 1990,569 L 1990,805 1990,805 Z"/>
         <path fill="rgb(41,50,65)" stroke="none" d="M 2191,736 C 2191,757 2204,770 2223,770 2241,770 2255,757 2255,736 L 2255,701 2299,701 2299,736 C 2299,781 2265,807 2223,807 2181,807 2146,783 2146,736 L 2146,559 C 2146,514 2181,487 2223,487 2265,487 2299,514 2299,559 L 2299,593 2255,593 2255,559 C 2255,538 2241,524 2223,524 2204,524 2191,538 2191,559 L 2191,736 2191,736 Z"/>
         <path fill="rgb(238,108,77)" stroke="none" d="M 2421,567 L 2498,567 2498,736 C 2498,781 2463,807 2421,807 2379,807 2344,783 2344,736 L 2344,435 C 2344,390 2379,363 2421,363 2463,363 2498,390 2498,435 L 2498,490 2453,490 2453,432 C 2453,411 2439,398 2421,398 2402,398 2389,411 2389,432 L 2389,733 C 2389,754 2402,768 2421,768 2439,768 2453,754 2453,733 L 2453,598 2421,598 2421,567 2421,567 Z"/>
         <path fill="rgb(238,108,77)" stroke="none" d="M 2698,559 L 2698,733 C 2698,781 2664,805 2619,805 2577,805 2543,778 2543,733 L 2543,559 C 2543,511 2577,485 2619,485 2664,487 2698,514 2698,559 L 2698,559 Z M 2587,736 C 2587,760 2603,770 2622,770 2640,770 2656,757 2656,736 L 2656,561 C 2656,538 2640,524 2622,524 2603,524 2587,538 2587,561 L 2587,736 2587,736 Z"/>
         <path fill="rgb(41,50,65)" stroke="none" d="M 1187,609 C 1187,711 1161,810 1110,898 1059,986 986,1059 898,1110 810,1161 710,1188 609,1188 507,1188 407,1161 319,1110 231,1059 158,986 108,898 57,810 30,711 30,609 30,507 57,408 108,320 158,232 231,159 319,108 407,57 507,30 609,30 710,30 810,57 898,108 986,159 1059,232 1110,320 1161,408 1187,507 1187,609 L 1187,609 Z"/>
         <path fill="rgb(224,251,252)" stroke="none" d="M 609,1135 C 321,1135 86,900 86,612 86,324 321,88 609,88 897,88 1132,324 1132,612 1132,900 897,1135 609,1135 L 609,1135 Z M 609,125 C 342,125 125,342 125,609 125,876 342,1093 609,1093 876,1093 1092,876 1092,609 1092,342 876,125 609,125 L 609,125 Z"/>
         <path fill="rgb(224,251,252)" stroke="none" d="M 609,902 C 448,902 315,770 315,609 315,448 448,316 609,316 770,316 902,448 902,609 902,770 770,902 609,902 L 609,902 Z M 609,355 C 469,355 355,469 355,609 355,749 469,863 609,863 749,863 862,749 862,609 862,469 749,355 609,355 L 609,355 Z"/>
         <path fill="rgb(224,251,252)" stroke="none" d="M 722,332 C 722,351 717,371 707,388 697,406 683,420 666,430 648,440 629,445 609,445 589,445 569,440 552,430 535,420 520,406 510,388 500,371 495,351 495,332 495,312 500,292 510,275 520,257 535,243 552,233 569,223 589,218 609,218 629,218 648,223 666,233 683,243 697,257 707,275 717,292 722,312 722,332 L 722,332 Z"/>
         <path fill="rgb(224,251,252)" stroke="none" d="M 466,741 C 466,761 461,781 451,798 441,815 427,830 409,839 392,849 372,855 352,855 333,855 313,849 296,839 278,830 264,815 254,798 244,781 239,761 239,741 239,721 244,702 254,684 264,667 278,653 296,643 313,633 333,627 352,627 372,627 392,633 409,643 427,653 441,667 451,684 461,702 466,721 466,741 L 466,741 Z"/>
         <path fill="rgb(224,251,252)" stroke="none" d="M 976,741 C 976,761 971,781 961,798 951,815 936,830 919,839 902,849 882,855 862,855 842,855 823,849 806,839 788,830 774,815 764,798 754,781 749,761 749,741 749,721 754,702 764,684 774,667 788,653 806,643 823,633 842,627 862,627 882,627 902,633 919,643 936,653 951,667 961,684 971,702 976,721 976,741 L 976,741 Z"/>
        </g>
       </g>
      </g>
     </g>
    </g>
   </g>
  </g>
 </g>
</svg>